<svg width="82" height="70" viewBox="0 0 82 70" fill="none" xmlns="http://www.w3.org/2000/svg">
<path d="M73.3246 29.7673C76.0825 21.3297 69.1879 21.3297 69.1879 21.3297C59.5354 22.7362 66.43 31.1752 66.43 31.1752C66.43 31.1752 74.7036 46.644 60.1104 46.1007C45.5172 45.5574 49.8829 31.1738 49.8829 31.1738C58.253 24.0062 55.3986 15.705 55.3986 15.705C51.2618 1.63999 40.2304 3.0465 40.2304 3.0465C40.2304 3.0465 29.199 1.63999 25.0623 14.2985C25.0623 14.2985 20.9255 26.9557 30.578 31.1738C30.578 31.1738 36.0937 46.644 19.5466 46.644C19.5466 46.644 5.75731 46.644 14.0309 28.3608C14.0309 28.3608 16.7887 18.5167 8.51516 21.3297C8.51516 21.3297 4.37839 22.7362 5.75731 29.7687C5.75731 29.7687 -1.13731 59.3011 25.0623 52.2686C25.0623 52.2686 47.1251 48.0491 55.3986 52.2686C63.6722 56.4881 74.7036 53.6751 74.7036 39.6114L73.3246 29.7673Z" fill="#D22F27"/>
<path d="M36.0938 32.0039C36.0938 32.0039 41.6095 47.7926 26.4413 52.0976C26.4413 52.0976 16.7888 50.6621 16.7888 59.2735C16.7888 67.8849 22.3045 67.8835 25.0624 66.4494C27.8202 65.0154 29.1992 60.7076 29.1992 60.7076C29.1992 60.7076 29.1992 56.6549 23.6835 60.9613C18.1678 65.2677 19.5467 56.4026 29.1992 54.9671C38.8516 53.5331 42.9884 37.7444 40.2306 32.0039H36.0938ZM16.9488 49.9299C16.9488 49.9299 14.1909 51.3089 11.4331 48.551C8.67524 45.7932 5.91739 47.1721 5.91739 47.1721C5.91739 47.1721 0.401696 48.551 4.53847 54.0667C4.53847 54.0667 5.91739 56.8246 10.0542 55.4456C10.0542 55.4456 12.6521 54.0667 9.89421 52.6878C7.13636 51.3089 4.37851 49.9299 7.13636 49.9299C9.89421 49.9299 15.7284 56.8246 16.9488 49.9299Z" fill="#EA5A47"/>
<path d="M43.8261 32.0039C43.8261 32.0039 38.3104 47.7926 53.4786 52.0976C53.4786 52.0976 63.131 50.6621 63.131 59.2735C63.131 67.8849 57.6153 67.8835 54.8575 66.4494C52.0996 65.0154 50.7207 60.7076 50.7207 60.7076C50.7207 60.7076 51.2613 56.6549 56.7769 60.9613C62.2926 65.2677 60.3732 56.4026 50.7207 54.9671C41.0682 53.5331 36.9315 37.7444 39.6893 32.0039H43.8261ZM65.0505 49.9299C65.0505 49.9299 67.8083 51.3089 70.5662 48.551C73.324 45.7932 76.0819 47.1721 76.0819 47.1721C76.0819 47.1721 81.5976 48.551 77.4608 54.0667C77.4608 54.0667 76.0819 56.8246 71.9451 55.4456C71.9451 55.4456 69.3472 54.0667 72.1051 52.6878C74.8629 51.3089 77.6208 49.9299 74.8629 49.9299C72.1051 49.9299 66.2695 56.8246 65.0505 49.9299Z" fill="#EA5A47"/>
<path d="M73.3253 29.2452C76.0831 20.9716 69.1885 20.9716 69.1885 20.9716C59.536 22.3505 66.4307 30.6241 66.4307 30.6241C66.4307 30.6241 74.7042 45.7922 60.1111 45.26C45.5179 44.7277 49.8836 30.6241 49.8836 30.6241C58.2536 23.5957 55.3993 15.4559 55.3993 15.4559C51.2625 1.66666 40.2311 3.04558 40.2311 3.04558C40.2311 3.04558 29.1997 1.66666 25.0629 14.077C25.0629 14.077 20.9261 26.4873 30.5786 30.6241C30.5786 30.6241 36.0943 45.7923 19.5472 45.7923C19.5472 45.7923 5.75798 45.7923 14.0315 27.8662C14.0315 27.8662 16.7894 18.2138 8.51583 20.9716C8.51583 20.9716 4.37905 22.3505 5.75798 29.2452" stroke="black" stroke-width="4.16667" stroke-miterlimit="10" stroke-linecap="round" stroke-linejoin="round"/>
<path d="M36.0938 33.3818C36.0938 33.3818 41.6095 48.55 26.4413 52.6868C26.4413 52.6868 16.7888 51.3079 16.7888 59.5814C16.7888 67.855 22.3045 67.855 25.0624 66.476C27.8202 65.0971 29.1992 60.9603 29.1992 60.9603M43.9674 33.3818C43.9674 33.3818 38.4517 48.55 53.6199 52.6868C53.6199 52.6868 63.2724 51.3079 63.2724 59.5814C63.2724 67.855 57.7567 67.855 54.9988 66.476C52.241 65.0971 50.8621 60.9603 50.8621 60.9603M16.9488 49.9289C16.9488 49.9289 14.1909 51.3079 11.4331 48.55C8.67524 45.7922 5.91739 47.1711 5.91739 47.1711C5.91739 47.1711 0.401695 48.55 4.53847 54.0657C4.53847 54.0657 5.91739 56.8236 10.0542 55.4446M65.0512 49.9289C65.0512 49.9289 67.8091 51.3079 70.5669 48.55C73.3248 45.7922 76.0826 47.1711 76.0826 47.1711C76.0826 47.1711 81.5983 48.55 77.4615 54.0657C77.4615 54.0657 76.0826 56.8236 71.9458 55.4446" stroke="black" stroke-width="4.16667" stroke-miterlimit="10" stroke-linecap="round" stroke-linejoin="round"/>
</svg>
